<svg xmlns="http://www.w3.org/2000/svg" version="1.1" viewBox="-5.0 -10.0 110.0 135.0">
 <path d="m45.832 6.25c-21.848 0-39.582 17.734-39.582 39.582 0 21.848 17.734 39.582 39.582 39.582 1.1484 0 2.082-0.93359 2.082-2.082 0-1.1484-0.93359-2.082-2.082-2.082-19.547 0-35.418-15.867-35.418-35.418 0-19.547 15.867-35.418 35.418-35.418 19.547 0 35.418 15.867 35.418 35.418 0 1.1484 0.93359 2.082 2.082 2.082 1.1484 0 2.082-0.93359 2.082-2.082 0-21.848-17.734-39.582-39.582-39.582zm0 12.5c-6.8984 0-12.5 5.6016-12.5 12.5 0 2.8516 0.96094 5.4766 2.5703 7.582-3.8047 3.2031-8.8203 9.457-8.8203 23.668 0 1.1523 0.93359 2.082 2.082 2.082h16.668c1.1484 0 2.082-0.92969 2.082-2.082 0-1.1484-0.93359-2.082-2.082-2.082h-14.543c0.45313-11.246 4.582-16.207 7.6797-18.723 1.9727 1.2969 4.3281 2.0547 6.8594 2.0547 2.5469 0 4.9141-0.76562 6.8906-2.0742 1.5508 1.043 3.4219 2.0391 4.8828 5.0664 0.50391 1.0352 1.7461 1.4688 2.7773 0.96484 1.0352-0.49609 1.4727-1.7461 0.97266-2.7852-1.6914-3.5039-3.7266-4.918-5.5391-6.1641 1.5781-2.0898 2.5156-4.6914 2.5156-7.5117 0-6.8984-5.6016-12.5-12.5-12.5zm0 4.168c4.6016 0 8.332 3.7344 8.332 8.332 0 4.6016-3.7344 8.332-8.332 8.332-4.6016 0-8.332-3.7344-8.332-8.332 0-4.6016 3.7344-8.332 8.332-8.332zm22.918 18.75c-1.1484 0-2.082 0.93359-2.082 2.082v2.082c0 1.1484 0.93359 2.082 2.082 2.082s2.082-0.93359 2.082-2.082v-2.082c0-1.1484-0.93359-2.082-2.082-2.082zm6.25 0c-1.1484 0-2.082 0.93359-2.082 2.082v2.082c0 1.1484 0.93359 2.082 2.082 2.082s2.082-0.93359 2.082-2.082v-2.082c0-1.1484-0.93359-2.082-2.082-2.082zm-23.109 8.1484c-0.48047 0.042969-0.93359 0.25391-1.2812 0.60156-0.46484 0.46484-0.68359 1.1172-0.58984 1.7656l4.418 30.934c0.11328 0.78125 0.65234 1.4336 1.4023 1.6797 0.74609 0.25 1.5742 0.058594 2.1328-0.5l7.3633-7.3672 16.207 16.207c0.8125 0.8125 2.1328 0.8125 2.9453 0l8.8359-8.8359c0.8125-0.8125 0.8125-2.1367 0-2.9492l-16.203-16.203 7.3672-7.3633c0.55859-0.55859 0.75-1.3828 0.5-2.1328s-0.89844-1.293-1.6797-1.4023l-30.934-4.418c-0.16406-0.023437-0.32422-0.027343-0.48438-0.011719zm2.6445 4.5273 24.066 3.4375-5.8984 5.8906c-0.8125 0.81641-0.8125 2.1328 0 2.9492l16.207 16.207-5.8906 5.8906-16.207-16.207c-0.8125-0.81641-2.1328-0.81641-2.9453 0l-5.8906 5.8906-3.4375-24.059zm-8.7031 14.402c-1.1484 0-2.082 0.93359-2.082 2.082s0.93359 2.082 2.082 2.082h2.082c1.1484 0 2.082-0.93359 2.082-2.082s-0.93359-2.082-2.082-2.082zm0 6.25c-1.1484 0-2.082 0.93359-2.082 2.082s0.93359 2.082 2.082 2.082h2.082c1.1484 0 2.082-0.93359 2.082-2.082s-0.93359-2.082-2.082-2.082z" fill="#16be78" fill-rule="evenodd"/></svg>